<svg xmlns="http://www.w3.org/2000/svg" xmlns:xlink="http://www.w3.org/1999/xlink" zoomAndPan="magnify" preserveAspectRatio="xMidYMid meet" version="1.0" viewBox="1 0 103.15 36.55"><defs><g/><clipPath id="873474dfe0"><path d="M 7 2 L 30.898438 2 L 30.898438 33 L 7 33 Z M 7 2 " clip-rule="nonzero"/></clipPath><clipPath id="1871ebe154"><path d="M 1 0 L 16 0 L 16 36.550781 L 1 36.550781 Z M 1 0 " clip-rule="nonzero"/></clipPath></defs><g clip-path="url(#873474dfe0)"><path fill="#308faf" d="M 18 22.742188 L 23.234375 12.289062 C 23.347656 12.066406 23.460938 11.894531 23.589844 11.785156 C 23.710938 11.671875 23.839844 11.621094 23.964844 11.621094 C 24.082031 11.621094 24.203125 11.6875 24.332031 11.832031 C 24.460938 11.976562 24.550781 12.191406 24.601562 12.480469 L 27.144531 29.109375 C 27.226562 29.667969 27.320312 30.132812 27.421875 30.492188 C 27.527344 30.859375 27.664062 31.144531 27.835938 31.351562 C 28.003906 31.558594 28.234375 31.703125 28.515625 31.78125 C 28.90625 31.886719 29.230469 31.960938 29.476562 31.992188 C 29.726562 32.023438 29.933594 32.042969 30.105469 32.035156 C 30.238281 32.035156 30.34375 32.058594 30.421875 32.105469 C 30.507812 32.148438 30.550781 32.210938 30.550781 32.289062 C 30.542969 32.402344 30.476562 32.480469 30.335938 32.535156 C 30.203125 32.582031 30.03125 32.609375 29.816406 32.609375 C 29.667969 32.609375 29.414062 32.601562 29.054688 32.597656 C 28.695312 32.59375 28.273438 32.582031 27.796875 32.570312 C 27.320312 32.5625 26.839844 32.542969 26.347656 32.535156 C 25.851562 32.519531 25.402344 32.503906 24.996094 32.492188 C 24.582031 32.476562 24.261719 32.460938 24.03125 32.449219 C 23.703125 32.433594 23.484375 32.398438 23.367188 32.339844 C 23.25 32.28125 23.199219 32.210938 23.203125 32.132812 C 23.203125 32.066406 23.234375 32.007812 23.292969 31.960938 C 23.347656 31.914062 23.425781 31.878906 23.519531 31.84375 C 23.601562 31.820312 23.652344 31.714844 23.679688 31.53125 C 23.707031 31.359375 23.695312 31.078125 23.648438 30.699219 L 22.089844 19.03125 L 21.996094 19.03125 L 18.179688 26.617188 C 18.148438 27.769531 17.710938 29.730469 17.058594 30.988281 C 17.5625 15.039062 0.609375 11.648438 9.886719 2.191406 C 7.820312 7.390625 15.480469 12.835938 18 22.742188 Z M 18 22.742188 " fill-opacity="1" fill-rule="nonzero"/></g><g clip-path="url(#1871ebe154)"><path fill="#2b2b2b" d="M 3.214844 0.00390625 C 1.941406 15.171875 20.90625 19.707031 14.5625 36.371094 C 15.164062 29.210938 11.253906 24.417969 7.625 19.601562 L 6.316406 29.777344 C 6.285156 30.011719 6.265625 30.226562 6.25 30.425781 C 6.234375 30.625 6.222656 30.832031 6.222656 31.050781 C 6.226562 31.300781 6.3125 31.484375 6.472656 31.601562 C 6.636719 31.722656 6.835938 31.800781 7.082031 31.84375 C 7.3125 31.894531 7.503906 31.925781 7.660156 31.945312 C 7.808594 31.960938 7.945312 31.972656 8.066406 31.972656 C 8.199219 31.976562 8.304688 32.003906 8.382812 32.050781 C 8.46875 32.105469 8.511719 32.164062 8.511719 32.226562 C 8.511719 32.347656 8.449219 32.433594 8.332031 32.480469 C 8.214844 32.523438 8.050781 32.542969 7.84375 32.542969 C 7.445312 32.542969 7.054688 32.535156 6.667969 32.519531 C 6.28125 32.503906 5.929688 32.492188 5.617188 32.476562 C 5.304688 32.460938 5.0625 32.449219 4.886719 32.449219 C 4.699219 32.449219 4.445312 32.460938 4.128906 32.476562 C 3.808594 32.492188 3.472656 32.503906 3.109375 32.519531 C 2.753906 32.535156 2.425781 32.542969 2.121094 32.542969 C 1.972656 32.542969 1.855469 32.523438 1.757812 32.480469 C 1.664062 32.433594 1.617188 32.347656 1.609375 32.226562 C 1.609375 32.164062 1.648438 32.105469 1.726562 32.050781 C 1.800781 32.003906 1.914062 31.976562 2.054688 31.972656 C 2.160156 31.972656 2.277344 31.972656 2.402344 31.96875 C 2.527344 31.957031 2.695312 31.941406 2.914062 31.910156 C 3.167969 31.871094 3.371094 31.746094 3.523438 31.527344 C 3.679688 31.316406 3.792969 31.054688 3.875 30.753906 C 3.957031 30.453125 4.023438 30.144531 4.058594 29.839844 L 6.019531 17.414062 C 2.699219 12.695312 0.316406 7.613281 3.214844 0.00390625 Z M 3.214844 0.00390625 " fill-opacity="1" fill-rule="evenodd"/></g><g fill="#2b2b2b" fill-opacity="1"><g transform="translate(28.084418, 30.459407)"><g><path d="M 2 -1.328125 C 0.988281 -2.429688 0.484375 -3.78125 0.484375 -5.375 C 0.484375 -6.976562 0.988281 -8.332031 2 -9.4375 C 3.007812 -10.550781 4.289062 -11.109375 5.84375 -11.109375 C 7.269531 -11.109375 8.445312 -10.660156 9.375 -9.765625 L 9.375 -10.78125 L 13.109375 -10.78125 L 13.109375 0 L 9.421875 0 L 9.421875 -1.21875 L 9.375 -1.21875 C 8.445312 -0.195312 7.269531 0.3125 5.84375 0.3125 C 4.289062 0.3125 3.007812 -0.234375 2 -1.328125 Z M 5.15625 -7.203125 C 4.675781 -6.734375 4.4375 -6.125 4.4375 -5.375 C 4.4375 -4.632812 4.664062 -4.03125 5.125 -3.5625 C 5.59375 -3.09375 6.207031 -2.859375 6.96875 -2.859375 C 7.695312 -2.859375 8.296875 -3.097656 8.765625 -3.578125 C 9.234375 -4.054688 9.46875 -4.660156 9.46875 -5.390625 C 9.46875 -6.128906 9.222656 -6.734375 8.734375 -7.203125 C 8.253906 -7.679688 7.664062 -7.921875 6.96875 -7.921875 C 6.25 -7.921875 5.644531 -7.679688 5.15625 -7.203125 Z M 5.15625 -7.203125 "/></g></g></g><g fill="#2b2b2b" fill-opacity="1"><g transform="translate(41.346232, 30.459407)"><g><path d="M 1.265625 0 L 1.265625 -10.78125 L 4.984375 -10.78125 L 4.984375 -9.234375 L 5.03125 -9.234375 C 5.050781 -9.285156 5.09375 -9.351562 5.15625 -9.4375 C 5.21875 -9.519531 5.351562 -9.664062 5.5625 -9.875 C 5.78125 -10.09375 6.007812 -10.285156 6.25 -10.453125 C 6.488281 -10.617188 6.796875 -10.769531 7.171875 -10.90625 C 7.546875 -11.039062 7.929688 -11.109375 8.328125 -11.109375 C 8.734375 -11.109375 9.128906 -11.050781 9.515625 -10.9375 C 9.910156 -10.820312 10.203125 -10.707031 10.390625 -10.59375 L 10.6875 -10.4375 L 9.125 -7.28125 C 8.664062 -7.664062 8.019531 -7.859375 7.1875 -7.859375 C 6.738281 -7.859375 6.351562 -7.757812 6.03125 -7.5625 C 5.707031 -7.375 5.476562 -7.140625 5.34375 -6.859375 C 5.21875 -6.578125 5.125 -6.335938 5.0625 -6.140625 C 5.007812 -5.941406 4.984375 -5.785156 4.984375 -5.671875 L 4.984375 0 Z M 1.265625 0 "/></g></g></g><g fill="#2b2b2b" fill-opacity="1"><g transform="translate(50.719717, 30.459407)"><g><path d="M 12.359375 -9.4375 C 13.367188 -8.332031 13.875 -6.976562 13.875 -5.375 C 13.875 -3.78125 13.367188 -2.429688 12.359375 -1.328125 C 11.359375 -0.234375 10.078125 0.3125 8.515625 0.3125 C 7.085938 0.3125 5.910156 -0.195312 4.984375 -1.21875 L 4.9375 -1.21875 L 4.9375 0 L 1.265625 0 L 1.265625 -18.09375 L 4.984375 -18.09375 L 4.984375 -9.765625 C 5.910156 -10.660156 7.085938 -11.109375 8.515625 -11.109375 C 10.078125 -11.109375 11.359375 -10.550781 12.359375 -9.4375 Z M 9.21875 -3.5625 C 9.6875 -4.03125 9.921875 -4.632812 9.921875 -5.375 C 9.921875 -6.125 9.675781 -6.734375 9.1875 -7.203125 C 8.707031 -7.679688 8.113281 -7.921875 7.40625 -7.921875 C 6.695312 -7.921875 6.101562 -7.679688 5.625 -7.203125 C 5.144531 -6.734375 4.90625 -6.128906 4.90625 -5.390625 C 4.90625 -4.660156 5.140625 -4.054688 5.609375 -3.578125 C 6.078125 -3.097656 6.675781 -2.859375 7.40625 -2.859375 C 8.15625 -2.859375 8.757812 -3.09375 9.21875 -3.5625 Z M 9.21875 -3.5625 "/></g></g></g><g fill="#2b2b2b" fill-opacity="1"><g transform="translate(63.981533, 30.459407)"><g><path d="M 1.265625 0 L 1.265625 -18.09375 L 4.984375 -18.09375 L 4.984375 0 Z M 1.265625 0 "/></g></g></g><g fill="#2b2b2b" fill-opacity="1"><g transform="translate(69.130393, 30.459407)"><g><path d="M 12.171875 -4.875 L 4.359375 -4.875 C 4.359375 -4.125 4.601562 -3.566406 5.09375 -3.203125 C 5.582031 -2.835938 6.113281 -2.65625 6.6875 -2.65625 C 7.289062 -2.65625 7.765625 -2.734375 8.109375 -2.890625 C 8.460938 -3.054688 8.863281 -3.375 9.3125 -3.84375 L 12.015625 -2.5 C 10.890625 -0.625 9.023438 0.3125 6.421875 0.3125 C 4.785156 0.3125 3.382812 -0.242188 2.21875 -1.359375 C 1.0625 -2.472656 0.484375 -3.8125 0.484375 -5.375 C 0.484375 -6.945312 1.0625 -8.296875 2.21875 -9.421875 C 3.382812 -10.546875 4.785156 -11.109375 6.421875 -11.109375 C 8.128906 -11.109375 9.519531 -10.613281 10.59375 -9.625 C 11.664062 -8.632812 12.203125 -7.222656 12.203125 -5.390625 C 12.203125 -5.128906 12.191406 -4.957031 12.171875 -4.875 Z M 4.453125 -6.9375 L 8.5625 -6.9375 C 8.476562 -7.5 8.253906 -7.929688 7.890625 -8.234375 C 7.535156 -8.535156 7.078125 -8.6875 6.515625 -8.6875 C 5.898438 -8.6875 5.410156 -8.523438 5.046875 -8.203125 C 4.679688 -7.878906 4.484375 -7.457031 4.453125 -6.9375 Z M 4.453125 -6.9375 "/></g></g></g><g fill="#2b2b2b" fill-opacity="1"><g transform="translate(86.626883, 26.463396)"><g><path d="M 0.59375 0 L 0.59375 -5.015625 L 2.3125 -5.015625 L 2.3125 -4.484375 L 2.328125 -4.484375 C 2.785156 -4.929688 3.265625 -5.15625 3.765625 -5.15625 C 4.015625 -5.15625 4.257812 -5.125 4.5 -5.0625 C 4.75 -5 4.984375 -4.894531 5.203125 -4.75 C 5.429688 -4.613281 5.613281 -4.421875 5.75 -4.171875 C 5.894531 -3.921875 5.96875 -3.628906 5.96875 -3.296875 L 5.96875 0 L 4.234375 0 L 4.234375 -2.828125 C 4.234375 -3.085938 4.148438 -3.316406 3.984375 -3.515625 C 3.816406 -3.710938 3.601562 -3.8125 3.34375 -3.8125 C 3.082031 -3.8125 2.84375 -3.707031 2.625 -3.5 C 2.414062 -3.300781 2.3125 -3.078125 2.3125 -2.828125 L 2.3125 0 Z M 0.59375 0 "/></g></g></g><g fill="#2b2b2b" fill-opacity="1"><g transform="translate(92.577578, 26.463396)"><g><path d="M 5.65625 -2.265625 L 2.015625 -2.265625 C 2.015625 -1.910156 2.128906 -1.648438 2.359375 -1.484375 C 2.585938 -1.316406 2.835938 -1.234375 3.109375 -1.234375 C 3.390625 -1.234375 3.609375 -1.269531 3.765625 -1.34375 C 3.929688 -1.414062 4.117188 -1.5625 4.328125 -1.78125 L 5.578125 -1.15625 C 5.054688 -0.289062 4.191406 0.140625 2.984375 0.140625 C 2.222656 0.140625 1.570312 -0.113281 1.03125 -0.625 C 0.488281 -1.144531 0.21875 -1.769531 0.21875 -2.5 C 0.21875 -3.226562 0.488281 -3.851562 1.03125 -4.375 C 1.570312 -4.894531 2.222656 -5.15625 2.984375 -5.15625 C 3.773438 -5.15625 4.421875 -4.925781 4.921875 -4.46875 C 5.421875 -4.007812 5.671875 -3.351562 5.671875 -2.5 C 5.671875 -2.382812 5.664062 -2.304688 5.65625 -2.265625 Z M 2.078125 -3.21875 L 3.96875 -3.21875 C 3.9375 -3.476562 3.835938 -3.675781 3.671875 -3.8125 C 3.503906 -3.957031 3.289062 -4.03125 3.03125 -4.03125 C 2.738281 -4.03125 2.507812 -3.953125 2.34375 -3.796875 C 2.175781 -3.648438 2.085938 -3.457031 2.078125 -3.21875 Z M 2.078125 -3.21875 "/></g></g></g><g fill="#2b2b2b" fill-opacity="1"><g transform="translate(97.961533, 26.463396)"><g><path d="M 0.875 -5.015625 L 0.875 -6.875 L 2.609375 -6.875 L 2.609375 -5.015625 L 3.65625 -5.015625 L 3.65625 -3.6875 L 2.609375 -3.6875 L 2.609375 -2.09375 C 2.609375 -1.632812 2.738281 -1.40625 3 -1.40625 C 3.0625 -1.40625 3.128906 -1.414062 3.203125 -1.4375 C 3.273438 -1.46875 3.332031 -1.5 3.375 -1.53125 L 3.421875 -1.5625 L 3.859375 -0.171875 C 3.484375 0.0351562 3.0625 0.140625 2.59375 0.140625 C 2.257812 0.140625 1.972656 0.0820312 1.734375 -0.03125 C 1.503906 -0.144531 1.328125 -0.296875 1.203125 -0.484375 C 1.085938 -0.671875 1.003906 -0.867188 0.953125 -1.078125 C 0.898438 -1.296875 0.875 -1.523438 0.875 -1.765625 L 0.875 -3.6875 L 0.15625 -3.6875 L 0.15625 -5.015625 Z M 0.875 -5.015625 "/></g></g></g><g fill="#308faf" fill-opacity="1"><g transform="translate(101.317037, 26.463396)"><g><path d="M 1.703125 -2.09375 C 2.015625 -2.09375 2.28125 -1.984375 2.5 -1.765625 C 2.71875 -1.546875 2.828125 -1.28125 2.828125 -0.96875 C 2.828125 -0.664062 2.71875 -0.40625 2.5 -0.1875 C 2.28125 0.03125 2.015625 0.140625 1.703125 0.140625 C 1.390625 0.140625 1.125 0.03125 0.90625 -0.1875 C 0.695312 -0.40625 0.59375 -0.664062 0.59375 -0.96875 C 0.59375 -1.28125 0.695312 -1.546875 0.90625 -1.765625 C 1.125 -1.984375 1.390625 -2.09375 1.703125 -2.09375 Z M 1.703125 -2.09375 "/></g></g></g></svg>